<?xml version="1.0" encoding="utf-8"?>
<!-- Generator: Adobe Illustrator 20.1.0, SVG Export Plug-In . SVG Version: 6.00 Build 0)  -->
<svg version="1.1" id="suisse" xmlns="http://www.w3.org/2000/svg" xmlns:xlink="http://www.w3.org/1999/xlink" x="0px" y="0px"
	 viewBox="0 0 1280 723.3" style="enable-background:new 0 0 1280 723.3;" xml:space="preserve">
<style type="text/css">
	.st0{fill:none;}
	.st1{fill:#006600;}
	.st2{fill:#E53E3E;}
	.st3{opacity:0.2;fill:url(#fondvert_1_);stroke:url(#fondvert_2_);stroke-miterlimit:10;}
	.st4{opacity:0.2;fill:url(#fondrouge_1_);stroke:url(#fondrouge_2_);stroke-miterlimit:10;}
	.st5{fill:#006600;stroke:#FFFFFF;stroke-miterlimit:10;}
</style>
<pattern  y="-76.7" width="40" height="40" patternUnits="userSpaceOnUse" id="Nouvelle_nuance_de_motif_6" viewBox="0 -40 40 40" style="overflow:visible;">
	<g>
		<rect y="-40" class="st0" width="40" height="40"/>
		<circle class="st1" cx="20" cy="-20" r="6.4"/>
	</g>
</pattern>
<pattern  y="-76.7" width="40" height="40" patternUnits="userSpaceOnUse" id="Nouvelle_nuance_de_motif_7" viewBox="0 -40 40 40" style="overflow:visible;">
	<g>
		<rect y="-40" class="st0" width="40" height="40"/>
		<circle class="st2" cx="20" cy="-20" r="6.4"/>
	</g>
</pattern>
<pattern  id="fondvert_1_" xlink:href="#Nouvelle_nuance_de_motif_6" patternTransform="matrix(0.4796 0 0 0.4997 -4276.0376 -3221.4453)">
</pattern>
<pattern  id="fondvert_2_" xlink:href="#Nouvelle_nuance_de_motif_6" patternTransform="matrix(1 0 0 1 8 9)">
</pattern>
<rect id="fondvert" x="1.2" y="24.5" class="st3" width="635" height="698"/>
<pattern  id="fondrouge_1_" xlink:href="#Nouvelle_nuance_de_motif_7" patternTransform="matrix(0.4796 0 0 0.4997 -4278.0376 -3221.4453)">
</pattern>
<pattern  id="fondrouge_2_" xlink:href="#Nouvelle_nuance_de_motif_6" patternTransform="matrix(1 0 0 1 6 9)">
</pattern>
<rect id="fondrouge" x="650" y="24.5" class="st4" width="628.7" height="698"/>
<path id="portugalcarte_2_" class="st5" d="M232.3,488.7l-4.9,5.9l-3.8,16.9l2.7,12.2h0l-7.9,13.9l-5.3,18.9l23.4-3.6l1.3-5.6
	l47.3,10.7l-0.9,3.9l11.5,0l30.6-17.8l-8.1-30.9h-0.3l4.5-5.4L321,500l19.9-31.1l10.1-0.4l11.1-15.3l-14-0.8l-5.2-12.9l-11.3-12.8
	l8.5-31.2l22.1-22.1l-7.9-11.2l-5.5,3.8l-17.4-25l5.3-3.7L317,309.6l40.4-4.3l9.6-28.4l-11.6-10.5l4.6-14.1l9.6,0.4l1.3-53.7
	l-6.3-23l0.1-0.1l48.2-42.2v-14.2l-2.8-4.5h-20.6V86.3l-43.6-2.7l-3.1,12.5l-56.5-4l-9.6,2.3l-0.1-0.1l-2.8,0.7l0-0.2l0-0.1l0,0
	l-5.6-23.5l-13.1-1.3l-39.4,25.1l0,0.1l6.2,25.5l0,0l5,20.6v0.1l7.6,31.1l0.4,2.7l-5.9,21.8l10.1,3.9l-6.8,17.7l-6.8-2.6V228
	l-8.1,25.9v20.1l-33.5,70.4l2.1,1.6l-13.3,44.1v10.5l25.7,0.2l3.2-4.4l9.5-21.8l9.1-3.2l-0.2,3.4l-4.4,10.6l-0.6,14.2l-21.6,7.6
	l2.7,18.2l40.4-8.3l0,0l2.1,1l-14,9.2l-5.7,43.6L232.3,488.7L232.3,488.7"/>
<path id="suissecarte_2_" class="st2" d="M979.4,312.3l4.6,7.7l-2.1,11.7l1.2,9.5l7.7,3.2l13.5,14l12.6,1.9l-2.5,12.9l11.1,10.1
	l-0.2,8.6l8,1.9l5.4-9l-6.2-5.9l0.4-11.7l14-19.1l0,0l0.1-0.1l0,0l0,0l10.4-18.2l-2.2-20.7l9.2-2.7l7.6,0l1.2,16.3l9.5,9.2l12.5,0.6
	l4.1-7.4l15-2.3l13.1,19.6l9.2-5l-5.4-11.6l3.3-8.5l-9.6-4.2l5.3-20l11.9-2.7l19.1,12.6l3.1-8.9l-8.6-6.9l8.6-35l-8.8-10.6
	l-10.3,10.5l-12.7,9l-18.9-8.8l-3.8-12.7l-34-6.3l0,0l3.4-9.6l-2.6-8.7l1.4-5.3l8.4-14.9l4.8-12.2l-8.6-9.5l0.3-0.1l-26-17.8
	l-7.5-2.6l-14.9-1.1l-6.4,3.2l-13-3.2l4.4-1.8l-5.4-3.8l-1.9,3.8l-5-1.2l-0.2-6.4l-5.3-5.1l-2.9,4.3l-2-5.5l-4.4,0l0.7,2.7l-7.7,2
	l-1.9,4.9l-4.6,3.7l0.6,3.1l6.4,4.2l8.6-3.7l4.1,1.3l-2.7,8.2l-2.9,1.1l-2.7-4.4l-5.6,2.5l-3.6,3.7L981,165l-9.4-1.2l-2.7-4.2
	l-9.4,0.2l-8.7,6.6l-15,0.6l-1.3-3.7l-7.3-0.5l-6.5,5.4l-8.6-0.6l-3.4-0.2l4.5-5.1l-15.6,7.2l1.5,5.5l-5,0.7l-1.8,0.3l0,4.8
	l-7.5,3.8l-15.3-0.9l-0.8-7l-15.2-0.8l-0.1,5.4l-9.9,12.1l11.1-1l4.1,3.2l-8.4,8.1l0,4.8l-10.1,10.8l0,0l-14,11.6l0.7,3.9l-8.5,7.8
	l-13.8,5.9l-1.8,12.4l-1.5,13.1l-25.9,21.1l-4.6,20l6.1,7.8l-1,5.4l-2.5,10.3l-4.4,1l-7.8,3.8l2.5,4.7l-2.9,4.9l8-2l6,1.6l14.5-12.2
	l-5.2-11l4.3-8.8l19.6-7.9l33.3,6.6l-9.3,6.8l6.9,9.8l-4.3,16.1l21.7,28.3l17.7,4.4l26.4-9.7l12.1,0.4l15.4,5.4l17.2-21.6l9.1-12.9
	l-4.5-7.9L979.4,312.3"/>
</svg>
