<?xml version="1.0" encoding="utf-8"?>
<!-- Generator: Adobe Illustrator 20.1.0, SVG Export Plug-In . SVG Version: 6.00 Build 0)  -->
<svg version="1.1" id="Calque_1" xmlns="http://www.w3.org/2000/svg" xmlns:xlink="http://www.w3.org/1999/xlink" x="0px" y="0px"
	 viewBox="0 0 396 253.4" style="enable-background:new 0 0 396 253.4;" xml:space="preserve">
<style type="text/css">
	.st0{fill:#E53E3E;stroke:#FFFFFF;stroke-miterlimit:10;}
</style>
<g id="Tessin">
	<polygon class="st0" points="213.3,173.2 221.3,163.4 227.4,155.6 240.1,157.3 259.2,155.4 261.9,151.3 270.4,155.1 269.4,166.3 
		274.3,170.2 274.3,186.6 272.7,194.9 274.3,202.8 281.6,209 267.4,225.9 266.1,236.1 272.3,242.7 266.7,253.4 259,250.4 255.7,236 
		248.4,233.1 253.4,222.1 241.6,218.1 232.7,215.6 217,199.1 219,175.6 	"/>
</g>
<g id="Zurich">
	<polygon class="st0" points="240.2,81.9 238.7,79.2 243.5,75.6 247.2,76.6 247.3,71 258.4,69.4 264.1,61.3 262,54.2 262,54.1 
		257.6,50.5 259.3,46.9 256.2,42 257.3,35 252.9,30 245.7,25.8 244.3,23.7 249.1,24.2 251.3,19.7 248.3,17.7 240.2,18.9 239.2,13.1 
		235.2,13.1 231.7,21.1 230.1,26.8 224.5,22.9 218.9,27.7 216.1,28.1 210.4,38 214.7,48.5 212,54.5 216,61.2 219,59.6 213.3,67.5 
		215.8,73.6 221.1,75.8 228.9,74.9 236,82.3 	"/>
</g>
<g id="centrale">
	<polygon class="st0" points="219.5,165.6 221.4,163.4 219.5,165.6 	"/>
	<path class="st0" d="M221.5,132.1l-6,15.4l0.2,9.5l5.7,6.3l6.1-7.8l12.6,1.7l-1.8-12.4l11.8-7.8l2.8-7.3l8.9-9.8l-0.6-6.5l0.1,0
		l1.9-1l0.3-4.7l-1.1-1.5l-5-6.7l5.4-3.9l3.2-14.1l-3.1-6l-15.3,1.1l-3.8-1l-4.8,3.6l1.3,2.6l-4.2,0.4l-7-7.4l-7.8,0.9l-5.3-2.2
		l-0.5-1.9l-1.2,2.6l1,10.8l-4.7-1.9l-5.5-14.4l-5.1-1.8l-5,7.6l-7.8-4.8l-5.8,2.3l-5.2-4.4l-1.1,3.9l-9.6,2.7l4.2,12.6l0.9,15.1
		l5,0.6l-2.4,10.9l-4.7,0.3l-0.3,9l9.4,9.2l6.1-1.6l9.8,4.1l10.1-0.3l8.3-3.7l1.6,1.8L221.5,132.1z"/>
</g>
<g id="nordouest">
	<polygon class="st0" points="213.3,67.5 219,59.6 216,61.2 212,54.5 214.7,48.5 210.4,38 216.1,28.1 207.2,27.2 204.8,23.6 
		195.2,23.6 187.1,29.9 171.5,30.2 170.5,27.2 164.8,26.8 155.5,32.1 155.5,32.1 149.6,33 148.5,32.3 148.5,32.3 145.2,30.2 
		148.4,29.4 148.8,26.2 148.8,26.2 148.8,26.2 143.4,27.5 140.7,28.1 137.8,30.3 137.6,30.5 137.6,30.5 134.7,32.6 136,34.4 
		133.6,37.6 133.1,40.6 128.5,40.3 128.5,46.2 121.5,47.9 129.1,54.3 129.1,54.3 131.4,52.2 138.6,50.7 144.6,47.6 145.1,42.2 
		148.8,39.7 154.3,42.9 147.7,50.8 148.6,55.6 160.8,60.4 169.5,51.2 174.7,49.9 174.6,45 176.2,45 182.7,52.2 177.8,60.9 
		170.8,59.7 163.9,68.6 165.4,74.2 175,71.5 176.1,67.6 181.3,72 187,69.7 194.8,74.5 199.7,66.9 204.8,68.7 210.3,83.1 215,85 
		214,74.2 215.1,72 	"/>
</g>
<path id="oriental" class="st0" d="M266,81.6l-3.2,14.1l-5.5,3.8l6.1,8.3l-0.3,4.7l-1.9,1l0.6,6.6l-8.9,9.8l0,0l0,0l-2.8,7.3
	l-11.8,7.8l1.8,12.6l19-1.9l2.8-4.1l8.4,3.9l-1,11.1l4.9,3.9v16.4l-1.6,8.3l1.6,7.9l7.3,6.2l8.8-20.3l-1.8-20.5l16.1-0.7l1.4,14.9
	l9.1,10.7l11.2,0.5l5-7.4l20.6-3l6.7,19.5l10.2-5.3l-5.4-11.3l3.2-7.9l-8.7-3.2l4.7-21.1l12.8-1.7l9.3,9L396,162l-0.6-10.3l-7.8-5.9
	l8.2-32.1l-8.4-9.7l-16.2,17.4l-15.5-3.9l-12.9-7.6l-0.2-8.5l-24.5-4.2l1.5-12.1L313,69.4l11.3-21.7L316,37.3l0,0l-21.5-16.8
	l-10.9-3.3l-15.3-1.6l-6.2,3.7l-11.7-4.3l3.5-1.6l-7.3-3.5l0.1,3.2l-4.5,0.2l-1.5-3.8l1.5-3.5l-3.1-1l-2.8-4l-1.2,3.7l-2,1.1
	L231.7,0l-2.9-0.6L228,2.6l-7.9,1.8l-2,5.5l-4,2.5l0.8,3.7l5.3,4.3l5.2-3.1l7.8,0.4l2-4.6h4l1,5.7l8.1-1.2l0.2,0l3,2.1l-2.1,4.5
	l-4.8-0.6l1.3,2.1l7.2,4.2l4.4,4.9l-1,7.1l3.1,4.8l-1.7,3.6l4.4,3.6l0,0l2.1,7.2l-5.7,8.1l-11,1.6l-0.1,5.6l15.3-1.1L266,81.6"/>
<g id="lemanique">
	<polygon class="st0" points="101,115.8 97.1,106.1 92.3,103.6 86.5,109.7 95.3,122.3 	"/>
	<polygon class="st0" points="221.3,163.4 215.6,157.1 215.4,147.5 207.8,159.9 195.7,164.6 176.9,161.9 155.2,177.6 145.7,175.5 
		135.1,183.5 112.5,188.4 113.3,161.4 91.7,174.5 74.6,156.5 75.9,148 86.7,135.5 90.7,119.3 83.5,112.9 71.4,125.2 67.6,111.2 
		42.7,122.5 40.7,129.3 41.7,135.8 14.2,156.8 16.6,160.7 9.3,171.4 8.9,177.3 16.1,183.2 14.2,188.8 14.3,188.8 12.9,199.7 
		8.6,200.1 0,204.7 2.8,208 1.4,213.5 8.9,211.4 13.3,213.2 19.6,206.8 27.7,201.2 26.9,197.4 24.6,198.3 22.9,191.7 22.8,191.7 
		31.2,179.6 47,172.7 60.1,173.1 73,178.4 73,178.4 69.7,187.1 77.4,195.5 71.1,211.7 90.6,231.8 101,246.3 140.3,233.2 
		164.1,241.6 170.4,230.4 179.8,228.4 191,209 186.2,199.2 213.3,173.2 	"/>
</g>
<g id="mitteland">
	<path class="st0" d="M113.3,161.4l-0.8,27l22.6-4.9l9.1-6.9h1.3v-1l0.1-0.1l9.5,2.1l21.7-15.7l18.8,2.8l12.2-4.8l7.6-12.3l6-15.4
		l-8.1,0.1h0l-1.6-1.8l-8.3,3.7l-10.1,0.3l-9.8-4.1l-6.1,1.6l-9.4-9.2l0.3-9l4.7-0.3l2.4-10.9l-5-0.6l-0.9-15.1l-4.2-12.6l-1.5-5.6
		l6.9-9l7,1.3l4.8-8.7l-6.4-7.2h-1.7l0.1,4.9l-5.1,1.2l-8.8,9.2l-12.2-4.8l-0.9-4.8l6.6-7.9l-5.5-3.2l-3.7,2.5l-0.5,5.4l-6,3.1
		l-7.2,1.5l-2.3,2.1h0l-4.2-3.5l5.4-1l1.3-1l-1.2-2.4l-1.9-1.3l0,1.2l-2.8,0.6l-0.9,3.9l-3.4-2.9l-9.6,2.1l-6.3-4.9l1.3-4.8
		l-15.9-0.7l0.8,5.5L80.4,55.9L92,55.7l4.3,4.7L88,65.8l-0.2,5.9l-10.3,9.8l0.1,0L64.1,97.9l-21.4,11.3v13.2l24.9-11.3l3.8,14l0,0
		l4.8,6.1l7.5,0.3l1.7-3.4l-0.4-8.4l-3.8-4.5l2.3-2.4l0.1-0.1l7.1,6.3l-4,16.3l-10.8,12.4l-1.3,8.5l17.1,18l21.6-13.1v0"/>
	<polygon class="st0" points="138.6,43.8 138.2,39.7 135.9,38.7 133.4,38.7 133.1,40.7 130.8,40.5 131.5,45 	"/>
	<polygon class="st0" points="112.9,176.6 112.9,176.6 113.3,163.5 	"/>
</g>
</svg>
